Coordinates
version=1
nRows=31
nColumns=38
inDegrees=no

Units are S.I. units (second, meters, Newtons, ...)
If the header above contains a line with 'inDegrees', this indicates whether rotational values are in degrees (yes) or radians (no).

endheader
time	pelvis_tilt	pelvis_list	pelvis_rotation	pelvis_tx	pelvis_ty	pelvis_tz	hip_flexion_r	hip_adduction_r	hip_rotation_r	knee_angle_r	ankle_angle_r	subtalar_angle_r	mtp_angle_r	hip_flexion_l	hip_adduction_l	hip_rotation_l	knee_angle_l	ankle_angle_l	subtalar_angle_l	mtp_angle_l	lumbar_extension	lumbar_bending	lumbar_rotation	arm_flex_r	arm_add_r	arm_rot_r	elbow_flex_r	pro_sup_r	wrist_flex_r	wrist_dev_r	arm_flex_l	arm_add_l	arm_rot_l	elbow_flex_l	pro_sup_l	wrist_flex_l	wrist_dev_l
1.07	2.9826	1.48351	1.73012	0.732322	0.0578675	1.02402	0.662607	-0.0238274	-0.00841047	1.30678	-0.116451	0	0	0.191457	-0.0407399	-0.277977	0.597192	0.20206	0	0	0.0615772	0.0223794	-0.103652	-0.147288	-0.340118	0.731752	0.447658	1.0642	0	0	0.00761713	-0.324885	0.51142	0.495457	1.38575	0	0
1.08	3.03266	1.48217	1.68727	0.732785	0.04794	1.02381	0.678437	-0.0211418	-0.0110965	1.28015	-0.103223	0	0	0.181109	-0.0449878	-0.276583	0.593969	0.204846	0	0	0.0638433	0.028508	-0.111422	-0.16178	-0.337046	0.723909	0.43977	1.06758	0	0	0.0163869	-0.331475	0.510553	0.509228	1.38491	0	0
1.09	3.07204	1.48037	1.65448	0.733173	0.0380839	1.02348	0.693015	-0.0189575	-0.0121501	1.25117	-0.0940606	0	0	0.17109	-0.048712	-0.275816	0.590833	0.206441	0	0	0.0665605	0.0339259	-0.118431	-0.176436	-0.334622	0.715677	0.433834	1.07148	0	0	0.0261184	-0.337023	0.510634	0.520287	1.38378	0	0
1.1	3.10995	1.47391	1.62331	0.73349	0.0281652	1.02269	0.709606	-0.0169838	-0.0120734	1.21893	-0.0519276	0	0	0.166468	-0.0514079	-0.270267	0.588422	0.213266	0	0	0.0739629	0.0378892	-0.133556	-0.176024	-0.336342	0.770787	0.42055	1.02051	0	0	0.0221605	-0.341877	0.475981	0.540974	1.40958	0	0
1.11	3.13592	1.46795	1.60304	0.733749	0.0183156	1.02183	0.724237	-0.0159893	-0.0102129	1.18456	-0.029974	0	0	0.161519	-0.0539002	-0.267235	0.586643	0.216657	0	0	0.0808372	0.041839	-0.139661	-0.189641	-0.332212	0.763421	0.411858	1.02457	0	0	0.0296612	-0.348092	0.475374	0.553727	1.41098	0	0
1.12	-3.12977	1.46073	1.59066	0.733943	0.00845759	1.02075	0.738218	-0.0161068	-0.00726627	1.14802	-0.00789223	0	0	0.158044	-0.0558626	-0.26438	0.585094	0.219663	0	0	0.0891395	0.0451937	-0.145068	-0.203253	-0.328192	0.755086	0.403961	1.02876	0	0	0.0369511	-0.354164	0.476133	0.5655	1.41249	0	0
1.13	-3.11885	1.4528	1.58427	0.734081	-0.00142074	1.01948	0.75079	-0.0172857	-0.00373946	1.10881	0.0123741	0	0	0.155443	-0.0574214	-0.262012	0.583668	0.222159	0	0	0.0981611	0.0481506	-0.149646	-0.216907	-0.324526	0.746389	0.397008	1.03367	0	0	0.0442092	-0.359763	0.477376	0.576095	1.41343	0	0
1.14	-3.11547	1.4454	1.58472	0.734161	-0.0113245	1.01807	0.761457	-0.0196443	-0.000264402	1.0688	0.0271353	0	0	0.152272	-0.0585202	-0.261216	0.582303	0.22368	0	0	0.106373	0.0505118	-0.152933	-0.23048	-0.321528	0.737712	0.391848	1.03958	0	0	0.0519233	-0.364797	0.478596	0.585673	1.41326	0	0
1.15	-3.11342	1.43512	1.58705	0.734292	-0.0213625	1.01635	0.772456	-0.0229831	0.00234328	1.02502	0.0578056	0	0	0.152458	-0.0589132	-0.258278	0.581301	0.227339	0	0	0.118341	0.0518877	-0.16248	-0.231683	-0.325985	0.798148	0.385698	0.980977	0	0	0.0495143	-0.367623	0.453881	0.599714	1.43144	0	0
1.16	-3.11348	1.4262	1.59154	0.734464	-0.0314459	1.01462	0.780586	-0.0271228	0.00313636	0.978629	0.0791624	0	0	0.150997	-0.0591801	-0.256668	0.580352	0.230024	0	0	0.128153	0.0534451	-0.165963	-0.244452	-0.321635	0.787736	0.378766	0.990421	0	0	0.055238	-0.371933	0.452526	0.609813	1.43156	0	0
1.17	-3.11499	1.41764	1.59784	0.734649	-0.0416607	1.01284	0.787211	-0.031809	0.00171217	0.930718	0.0972355	0	0	0.148836	-0.059308	-0.255797	0.579521	0.232877	0	0	0.137669	0.0546563	-0.169567	-0.256792	-0.317086	0.776779	0.372014	1.00101	0	0	0.0605231	-0.375935	0.451543	0.619242	1.43019	0	0
1.18	-3.11851	1.41023	1.60593	0.734787	-0.0519986	1.01102	0.791845	-0.036525	-0.00124701	0.881793	0.110005	0	0	0.144757	-0.0590986	-0.255309	0.578124	0.234798	0	0	0.146604	0.0555202	-0.172339	-0.266834	-0.316989	0.790221	0.369881	0.982257	0	0	0.0671929	-0.380555	0.457574	0.626794	1.42255	0	0
1.19	-3.12404	1.40286	1.6163	0.734889	-0.0624547	1.0091	0.795801	-0.0412986	-0.00495309	0.8332	0.126941	0	0	0.14037	-0.0583423	-0.254101	0.576583	0.238217	0	0	0.154094	0.0559102	-0.175285	-0.281013	-0.307527	0.747859	0.360462	1.02696	0	0	0.0713066	-0.383692	0.452982	0.636607	1.4272	0	0
1.2	-3.12671	1.39575	1.62434	0.73497	-0.0730016	1.00715	0.798456	-0.0454482	-0.00884219	0.784681	0.139837	0	0	0.135975	-0.0581833	-0.252839	0.575374	0.24139	0	0	0.161933	0.0560645	-0.185243	-0.278372	-0.313656	0.822173	0.357638	0.956021	0	0	0.066051	-0.385083	0.426294	0.649833	1.44735	0	0
1.21	-3.12554	1.38967	1.62907	0.735031	-0.0836239	1.00521	0.799303	-0.0487652	-0.0117102	0.73808	0.149208	0	0	0.130806	-0.0590922	-0.251397	0.574701	0.243671	0	0	0.168451	0.0573446	-0.189508	-0.287866	-0.308464	0.810291	0.351009	0.970406	0	0	0.0694911	-0.387872	0.423834	0.658105	1.44975	0	0
1.22	-3.12094	1.38479	1.63089	0.735063	-0.0943367	1.00334	0.798051	-0.0512308	-0.0121079	0.694986	0.156611	0	0	0.124801	-0.0609258	-0.249354	0.574419	0.245141	0	0	0.173737	0.0593971	-0.194329	-0.296269	-0.303148	0.79796	0.344122	0.986761	0	0	0.0730903	-0.390293	0.422654	0.665011	1.45153	0	0
1.23	-3.11309	1.38042	1.62975	0.73505	-0.105207	1.0015	0.796747	-0.0531652	-0.0114603	0.659288	0.165284	0	0	0.118936	-0.0638697	-0.247647	0.575178	0.245623	0	0	0.179832	0.0621758	-0.198403	-0.302847	-0.302548	0.812553	0.342108	0.970648	0	0	0.079416	-0.393829	0.434054	0.668373	1.44262	0	0
1.24	-3.09828	1.377	1.62219	0.734999	-0.11626	0.999871	0.79308	-0.053785	-0.00858543	0.626373	0.170927	0	0	0.112727	-0.068709	-0.245276	0.576696	0.245504	0	0	0.183457	0.066725	-0.20487	-0.310979	-0.292231	0.770431	0.32948	1.0242	0	0	0.0806285	-0.393457	0.425938	0.673082	1.45218	0	0
1.25	-3.07916	1.3746	1.61106	0.734949	-0.127418	0.99847	0.787833	-0.0538375	-0.00494037	0.598389	0.180763	0	0	0.106198	-0.074677	-0.241063	0.578935	0.243532	0	0	0.186567	0.0716466	-0.218961	-0.30183	-0.295793	0.849522	0.319901	0.963093	0	0	0.0728424	-0.391465	0.398263	0.680592	1.47347	0	0
1.26	-3.06181	1.3729	1.60163	0.734832	-0.138677	0.997105	0.785735	-0.0545832	-0.00582067	0.585656	0.189278	0	0	0.0996747	-0.080841	-0.237027	0.582671	0.240885	0	0	0.189449	0.076823	-0.226242	-0.304983	-0.291097	0.846038	0.311253	0.975537	0	0	0.0745151	-0.391495	0.39772	0.682171	1.47496	0	0
1.27	-3.0441	1.3714	1.59158	0.734549	-0.150083	0.995849	0.784913	-0.0544846	-0.00792437	0.581556	0.194841	0	0	0.0937165	-0.0876707	-0.233089	0.587831	0.237043	0	0	0.192414	0.0821603	-0.233232	-0.307515	-0.28641	0.842	0.302699	0.988422	0	0	0.0754724	-0.391338	0.397958	0.682759	1.47523	0	0
1.28	-3.02667	1.37046	1.58157	0.734137	-0.161641	0.994732	0.784021	-0.0536259	-0.00974255	0.583143	0.195711	0	0	0.0879832	-0.094752	-0.229035	0.594199	0.23361	0	0	0.195752	0.0875835	-0.238875	-0.30889	-0.287048	0.864458	0.301274	0.965711	0	0	0.0780021	-0.391353	0.405372	0.680192	1.46938	0	0
1.29	-3.0096	1.36916	1.57231	0.733612	-0.173422	0.993674	0.784735	-0.0528237	-0.0137474	0.592792	0.195806	0	0	0.0836761	-0.101713	-0.222814	0.602045	0.227217	0	0	0.198298	0.0928177	-0.246238	-0.31198	-0.277851	0.828343	0.288395	1.01497	0	0	0.0754336	-0.390195	0.400454	0.681074	1.47347	0	0
1.3	-2.99529	1.36709	1.56532	0.732895	-0.185451	0.99258	0.787659	-0.0519815	-0.0192072	0.610475	0.194233	0	0	0.0809419	-0.108088	-0.215245	0.610992	0.218573	0	0	0.202907	0.0968342	-0.255678	-0.305621	-0.279774	0.889883	0.282818	0.964082	0	0	0.0683567	-0.390284	0.393619	0.683952	1.47425	0	0
1.31	-2.98124	1.36502	1.55783	0.732003	-0.197755	0.991519	0.789405	-0.0498194	-0.0235622	0.630077	0.188119	0	0	0.0786825	-0.114642	-0.206966	0.620801	0.209614	0	0	0.207361	0.101338	-0.260803	-0.307138	-0.274842	0.879537	0.275538	0.980818	0	0	0.0639498	-0.390215	0.394621	0.684816	1.47054	0	0
1.32	-2.96646	1.36352	1.5488	0.731001	-0.21035	0.990554	0.788626	-0.0460953	-0.0264889	0.649372	0.179141	0	0	0.0763244	-0.121466	-0.19809	0.63172	0.201849	0	0	0.211428	0.106318	-0.265107	-0.30624	-0.275378	0.90082	0.274571	0.959993	0	0	0.0575665	-0.388525	0.390491	0.685362	1.47323	0	0
1.33	-2.951	1.36131	1.53847	0.729898	-0.223174	0.989613	0.788344	-0.0420905	-0.0306942	0.669073	0.164657	0	0	0.0758285	-0.128418	-0.188278	0.644784	0.190701	0	0	0.216468	0.111403	-0.269215	-0.304371	-0.274862	0.920443	0.271148	0.944781	0	0	0.0493965	-0.387823	0.388788	0.687344	1.4705	0	0
1.34	-2.92998	1.3592	1.52113	0.728653	-0.236068	0.988924	0.78804	-0.0373592	-0.0359656	0.685089	0.14452	0	0	0.0763887	-0.136521	-0.17781	0.660207	0.176962	0	0	0.220621	0.118722	-0.268661	-0.310118	-0.263463	0.840344	0.259537	1.03016	0	0	0.0455787	-0.387167	0.398708	0.686096	1.45986	0	0
1.35	-2.90053	1.3585	1.4934	0.727306	-0.248967	0.988759	0.786527	-0.0312729	-0.0424257	0.697491	0.127014	0	0	0.0766731	-0.146488	-0.168165	0.678178	0.159091	0	0	0.222673	0.128404	-0.271395	-0.300508	-0.2702	0.911778	0.260796	0.959114	0	0	0.0354864	-0.382713	0.389571	0.685036	1.46519	0	0
1.36	-2.86484	1.35962	1.45759	0.725886	-0.26187	0.989125	0.782621	-0.0234475	-0.0494981	0.709048	0.111254	0	0	0.0765368	-0.157387	-0.158273	0.699648	0.141753	0	0	0.221248	0.140474	-0.269723	-0.296334	-0.268424	0.89886	0.256168	0.972929	0	0	0.0297117	-0.377942	0.389723	0.680688	1.46409	0	0
1.37	-2.82882	1.36129	1.41965	0.724344	-0.274764	0.989825	0.777866	-0.0144996	-0.056122	0.722564	0.097497	0	0	0.0780333	-0.167625	-0.147288	0.726191	0.128435	0	0	0.218534	0.15267	-0.266615	-0.289766	-0.268972	0.899416	0.254232	0.973437	0	0	0.0231977	-0.372678	0.388963	0.675747	1.46374	0	0
